<svg xmlns="http://www.w3.org/2000/svg" width="512" height="512" fill="none"><path fill="url(#a)" d="M509.368 256c0-141.384-114.025-256-254.681-256C114.025 0 0 114.616 0 256c0 141.381 114.025 256 254.684 256s254.684-114.619 254.684-256"/><path stroke="#000" stroke-linejoin="round" stroke-opacity=".1" stroke-width="6" d="M254.688 3c138.983 0 251.68 113.258 251.68 253 0 139.739-112.697 253-251.684 253S3 395.739 3 256C3 116.258 115.697 3 254.688 3Z"/><g fill="#fff" filter="url(#b)"><path d="M207.259 135.221a19.59 19.59 0 0 0-1.055 21.624 19.3 19.3 0 0 0 5.082 5.61c29.665 22.101 46.696 55.893 46.696 92.725 0 36.833-17.031 70.625-46.696 92.726a19.3 19.3 0 0 0-5.076 5.61 19.5 19.5 0 0 0-2.18 14.741 19.5 19.5 0 0 0 3.229 6.866 19.32 19.32 0 0 0 27.121 4.033 157.3 157.3 0 0 0 24.962-23.212h54.947c10.699 0 19.394-8.707 19.394-19.456s-8.676-19.456-19.394-19.456h-30.327a154.4 154.4 0 0 0 12.788-61.849 154.45 154.45 0 0 0-12.785-61.854h30.343c10.699 0 19.39-8.704 19.39-19.456 0-10.749-8.675-19.453-19.39-19.453h-54.934a157.4 157.4 0 0 0-24.979-23.235 19.32 19.32 0 0 0-14.379-3.622 19.45 19.45 0 0 0-12.738 7.658z"/><path fill-rule="evenodd" d="M176.643 249.375a29.4 29.4 0 0 1 1.985-11.333 29.1 29.1 0 0 1 6.179-9.665 28.7 28.7 0 0 1 9.404-6.48 28.46 28.46 0 0 1 22.312 0 28.7 28.7 0 0 1 9.407 6.48 29.1 29.1 0 0 1 6.179 9.665 29.33 29.33 0 0 1-6.675 31.421 28.57 28.57 0 0 1-20.065 8.261 28.57 28.57 0 0 1-20.072-8.261 29.22 29.22 0 0 1-8.654-20.088" clip-rule="evenodd"/></g><path stroke="#000" stroke-opacity=".1" stroke-width="4" d="M207.259 135.221a19.59 19.59 0 0 0-1.055 21.624 19.3 19.3 0 0 0 5.082 5.61c29.665 22.101 46.696 55.893 46.696 92.725 0 36.833-17.031 70.625-46.696 92.726a19.3 19.3 0 0 0-5.076 5.61 19.5 19.5 0 0 0-2.18 14.741 19.5 19.5 0 0 0 3.229 6.866 19.32 19.32 0 0 0 27.121 4.033 157.3 157.3 0 0 0 24.962-23.212h54.947c10.699 0 19.394-8.707 19.394-19.456s-8.676-19.456-19.394-19.456h-30.327a154.4 154.4 0 0 0 12.788-61.849 154.45 154.45 0 0 0-12.785-61.854h30.343c10.699 0 19.39-8.704 19.39-19.456 0-10.749-8.675-19.453-19.39-19.453h-54.934a157.4 157.4 0 0 0-24.979-23.235 19.32 19.32 0 0 0-14.379-3.622 19.45 19.45 0 0 0-12.738 7.658z"/><path stroke="#000" stroke-opacity=".1" stroke-width="4" d="M176.643 249.375a29.4 29.4 0 0 1 1.985-11.333 29.1 29.1 0 0 1 6.179-9.665 28.7 28.7 0 0 1 9.404-6.48 28.46 28.46 0 0 1 22.312 0 28.7 28.7 0 0 1 9.407 6.48 29.1 29.1 0 0 1 6.179 9.665 29.33 29.33 0 0 1-6.675 31.421 28.57 28.57 0 0 1-20.065 8.261 28.57 28.57 0 0 1-20.072-8.261 29.22 29.22 0 0 1-8.654-20.088Z" clip-rule="evenodd"/><defs><radialGradient id="a" cx="0" cy="0" r="1" gradientTransform="matrix(263.8524 329.8156 -587.85841 470.28659 125.644 109.939)" gradientUnits="userSpaceOnUse"><stop stop-color="#fff"/><stop offset=".111" stop-color="#F8A384"/><stop offset=".344" stop-color="#E25A29"/><stop offset=".736" stop-color="#F37036"/><stop offset=".99" stop-color="#B3C30C"/></radialGradient><filter id="b" width="161.064" height="263.638" x="174.635" y="125.354" color-interpolation-filters="sRGB" filterUnits="userSpaceOnUse"><feFlood flood-opacity="0" result="BackgroundImageFix"/><feBlend in="SourceGraphic" in2="BackgroundImageFix" result="shape"/><feColorMatrix in="SourceAlpha" result="hardAlpha" values="0 0 0 0 0 0 0 0 0 0 0 0 0 0 0 0 0 0 127 0"/><feOffset dy="4"/><feGaussianBlur stdDeviation="2"/><feComposite in2="hardAlpha" k2="-1" k3="1" operator="arithmetic"/><feColorMatrix values="0 0 0 0 0 0 0 0 0 0 0 0 0 0 0 0 0 0 0.25 0"/><feBlend in2="shape" result="effect1_innerShadow_9_2"/></filter></defs></svg>